<?xml version="1.0" standalone="no"?>
<!DOCTYPE svg PUBLIC "-//W3C//DTD SVG 20010904//EN"
 "http://www.w3.org/TR/2001/REC-SVG-20010904/DTD/svg10.dtd">
<svg version="1.0" xmlns="http://www.w3.org/2000/svg"
 width="512.000000pt" height="512.000000pt" viewBox="0 0 512.000000 512.000000"
 preserveAspectRatio="xMidYMid meet">
<metadata>
Created by potrace 1.14, written by Peter Selinger 2001-2017
</metadata>
<g transform="translate(0.000000,512.000000) scale(0.100000,-0.100000)"
fill="#000000" stroke="none">
<path d="M35 2578 l0 -2543 1338 -3 c735 -1 1338 1 1338 5 1 5 2 270 3 590 l1
583 -672 0 -673 0 0 1955 0 1955 -668 0 -668 0 1 -2542z"/>
<path d="M2350 4530 l0 -590 672 -2 673 -3 0 -1950 0 -1950 668 -3 667 -2 0
2545 0 2545 -1340 0 -1340 0 0 -590z"/>
</g>
</svg>
