<?xml version="1.0" standalone="no"?>
<!DOCTYPE svg PUBLIC "-//W3C//DTD SVG 20010904//EN"
 "http://www.w3.org/TR/2001/REC-SVG-20010904/DTD/svg10.dtd">
<svg version="1.0" xmlns="http://www.w3.org/2000/svg"
 width="700.000000pt" height="700.000000pt" viewBox="0 0 700.000000 700.000000"
 preserveAspectRatio="xMidYMid meet">
<metadata>
Created by potrace 1.11, written by Peter Selinger 2001-2013
</metadata>
<g transform="translate(0.000000,700.000000) scale(0.100000,-0.100000)"
fill="#000000" stroke="none">
<path d="M49 6983 c0 -10 -1 -1574 -2 -3476 -1 -2298 1 -3457 8 -3458 6 -1
830 -2 1833 -3 1629 -1 1822 0 1823 14 1 19 1 1571 0 1585 -1 7 -290 11 -912
10 -597 0 -913 3 -917 10 -4 6 -7 1207 -7 2670 l0 2660 -913 3 c-864 2 -912 1
-913 -15z"/>
<path d="M3213 6195 l0 -805 71 -1 c39 0 452 0 919 0 l847 0 0 -2672 0 -2673
915 0 914 0 0 3478 0 3478 -1833 0 -1833 0 0 -805z"/>
</g>
</svg>
