<svg width="231" height="90" viewBox="0 0 231 90" fill="none" xmlns="http://www.w3.org/2000/svg">
  <path
    d="M98.76 7.73999V0.939993C98.76 0.859993 98.79 0.799993 98.85 0.759993C98.91 0.713327 98.98 0.689993 99.06 0.689993H102.62C102.787 0.689993 102.87 0.78666 102.87 0.979993C102.87 1.06666 102.847 1.14333 102.8 1.20999C102.76 1.26999 102.7 1.29999 102.62 1.29999H99.42V4.04999H100.99C101.07 4.04999 101.13 4.07999 101.17 4.13999C101.217 4.19333 101.24 4.26333 101.24 4.34999C101.24 4.52999 101.157 4.61999 100.99 4.61999H99.42V7.38999H102.62C102.693 7.38999 102.753 7.41999 102.8 7.47999C102.847 7.53999 102.87 7.61333 102.87 7.69999C102.87 7.89999 102.787 7.99999 102.62 7.99999H99.06C98.98 7.99999 98.91 7.97666 98.85 7.92999C98.79 7.88333 98.76 7.81999 98.76 7.73999Z"
    fill="#E3E0D8" />
  <path
    d="M103.408 7.34999C103.408 7.28333 103.431 7.21666 103.478 7.14999C103.525 7.08333 103.578 7.04999 103.638 7.04999C103.685 7.04999 103.758 7.08999 103.858 7.16999C103.958 7.24333 104.101 7.31999 104.288 7.39999C104.475 7.47999 104.698 7.51999 104.958 7.51999C105.311 7.51999 105.571 7.45333 105.738 7.31999C105.905 7.18666 105.988 7.01666 105.988 6.80999C105.988 6.56999 105.901 6.37999 105.728 6.23999C105.561 6.09333 105.358 5.98666 105.118 5.91999C104.878 5.85333 104.635 5.77999 104.388 5.69999C104.148 5.61999 103.941 5.48999 103.768 5.30999C103.601 5.12333 103.518 4.87666 103.518 4.56999C103.518 4.20333 103.648 3.88666 103.908 3.61999C104.175 3.34666 104.571 3.20999 105.098 3.20999C105.425 3.20999 105.728 3.26333 106.008 3.36999C106.295 3.46999 106.438 3.57999 106.438 3.69999C106.438 3.76666 106.411 3.83999 106.358 3.91999C106.305 3.99999 106.241 4.03999 106.168 4.03999C106.148 4.03999 106.025 3.99333 105.798 3.89999C105.571 3.80666 105.341 3.75999 105.108 3.75999C104.775 3.75999 104.525 3.83999 104.358 3.99999C104.191 4.15999 104.108 4.33999 104.108 4.53999C104.108 4.74666 104.191 4.90999 104.358 5.02999C104.531 5.14999 104.738 5.24333 104.978 5.30999C105.225 5.36999 105.468 5.44333 105.708 5.52999C105.955 5.60999 106.161 5.75666 106.328 5.96999C106.501 6.17666 106.588 6.44666 106.588 6.77999C106.588 7.17999 106.445 7.49666 106.158 7.72999C105.878 7.95666 105.485 8.06999 104.978 8.06999C104.538 8.06999 104.165 7.99333 103.858 7.83999C103.558 7.67999 103.408 7.51666 103.408 7.34999Z"
    fill="#E3E0D8" />
  <path
    d="M107.536 6.52999V1.25999C107.536 1.19333 107.569 1.13666 107.636 1.08999C107.702 1.04333 107.776 1.01999 107.856 1.01999C107.942 1.01999 108.019 1.04333 108.086 1.08999C108.152 1.13666 108.186 1.19333 108.186 1.25999V3.26999H109.476C109.542 3.26999 109.596 3.29666 109.636 3.34999C109.682 3.40333 109.706 3.46666 109.706 3.53999C109.706 3.61333 109.682 3.67666 109.636 3.72999C109.596 3.78333 109.542 3.80999 109.476 3.80999H108.186V6.52999C108.186 6.85666 108.252 7.08666 108.386 7.21999C108.526 7.34666 108.769 7.40999 109.116 7.40999H109.396C109.482 7.40999 109.552 7.43999 109.606 7.49999C109.666 7.55333 109.696 7.61999 109.696 7.69999C109.696 7.77999 109.666 7.84999 109.606 7.90999C109.552 7.96999 109.482 7.99999 109.396 7.99999H109.116C108.062 7.99999 107.536 7.50999 107.536 6.52999Z"
    fill="#E3E0D8" />
  <path
    d="M110.295 7.59999C110.295 7.46666 110.338 7.35666 110.425 7.26999C110.511 7.17666 110.621 7.12999 110.755 7.12999C110.875 7.12999 110.978 7.17666 111.065 7.26999C111.158 7.36333 111.205 7.47333 111.205 7.59999C111.205 7.71999 111.158 7.82666 111.065 7.91999C110.978 8.01333 110.875 8.05999 110.755 8.05999C110.621 8.05999 110.511 8.01666 110.425 7.92999C110.338 7.83666 110.295 7.72666 110.295 7.59999Z"
    fill="#E3E0D8" />
  <path
    d="M113.945 7.73999V6.76999C113.945 6.46333 114.062 6.16666 114.295 5.87999C114.529 5.59333 114.812 5.32999 115.145 5.08999L116.125 4.37999C116.459 4.13999 116.742 3.86999 116.975 3.56999C117.209 3.26333 117.325 2.94999 117.325 2.62999C117.325 2.28333 117.205 1.97666 116.965 1.70999C116.732 1.44333 116.402 1.30999 115.975 1.30999C115.615 1.30999 115.322 1.41333 115.095 1.61999C114.875 1.81999 114.765 2.10999 114.765 2.48999C114.765 2.56333 114.732 2.62666 114.665 2.67999C114.605 2.73333 114.522 2.75999 114.415 2.75999C114.215 2.75999 114.115 2.62333 114.115 2.34999C114.115 1.86999 114.295 1.47333 114.655 1.15999C115.015 0.84666 115.462 0.689993 115.995 0.689993C116.569 0.689993 117.042 0.873326 117.415 1.23999C117.795 1.60666 117.985 2.06333 117.985 2.60999C117.985 2.94333 117.902 3.26333 117.735 3.56999C117.569 3.87666 117.362 4.13666 117.115 4.34999C116.869 4.56333 116.599 4.77999 116.305 4.99999L115.495 5.57999C115.249 5.74666 115.042 5.93666 114.875 6.14999C114.709 6.35666 114.625 6.56333 114.625 6.76999V7.38999H117.815C117.882 7.38999 117.939 7.41999 117.985 7.47999C118.032 7.53999 118.055 7.60999 118.055 7.68999C118.055 7.76999 118.032 7.84333 117.985 7.90999C117.939 7.96999 117.882 7.99999 117.815 7.99999H114.255C114.182 7.99999 114.112 7.97666 114.045 7.92999C113.979 7.87666 113.945 7.81333 113.945 7.73999Z"
    fill="#E3E0D8" />
  <path
    d="M118.932 5.91999V2.81999C118.932 2.08666 119.118 1.54999 119.492 1.20999C119.872 0.863327 120.378 0.689993 121.012 0.689993C121.645 0.689993 122.148 0.863327 122.522 1.20999C122.902 1.54999 123.092 2.08666 123.092 2.81999V5.91999C123.092 6.65999 122.902 7.20333 122.522 7.54999C122.148 7.88999 121.645 8.05999 121.012 8.05999C120.378 8.05999 119.872 7.88999 119.492 7.54999C119.118 7.20333 118.932 6.65999 118.932 5.91999ZM119.592 5.91999C119.592 6.93999 120.065 7.44999 121.012 7.44999C121.958 7.44999 122.432 6.93999 122.432 5.91999V2.81999C122.432 1.80666 121.958 1.29999 121.012 1.29999C120.065 1.29999 119.592 1.80666 119.592 2.81999V5.91999ZM120.652 4.37999C120.652 4.27333 120.685 4.18666 120.752 4.11999C120.825 4.05333 120.915 4.01999 121.022 4.01999C121.122 4.01999 121.205 4.05333 121.272 4.11999C121.345 4.18666 121.382 4.27333 121.382 4.37999C121.382 4.47999 121.345 4.56666 121.272 4.63999C121.205 4.71333 121.122 4.74999 121.022 4.74999C120.915 4.74999 120.825 4.71333 120.752 4.63999C120.685 4.56666 120.652 4.47999 120.652 4.37999Z"
    fill="#E3E0D8" />
  <path
    d="M124.014 7.73999V6.76999C124.014 6.46333 124.13 6.16666 124.364 5.87999C124.597 5.59333 124.88 5.32999 125.214 5.08999L126.194 4.37999C126.527 4.13999 126.81 3.86999 127.044 3.56999C127.277 3.26333 127.394 2.94999 127.394 2.62999C127.394 2.28333 127.274 1.97666 127.034 1.70999C126.8 1.44333 126.47 1.30999 126.044 1.30999C125.684 1.30999 125.39 1.41333 125.164 1.61999C124.944 1.81999 124.834 2.10999 124.834 2.48999C124.834 2.56333 124.8 2.62666 124.734 2.67999C124.674 2.73333 124.59 2.75999 124.484 2.75999C124.284 2.75999 124.184 2.62333 124.184 2.34999C124.184 1.86999 124.364 1.47333 124.724 1.15999C125.084 0.84666 125.53 0.689993 126.064 0.689993C126.637 0.689993 127.11 0.873326 127.484 1.23999C127.864 1.60666 128.054 2.06333 128.054 2.60999C128.054 2.94333 127.97 3.26333 127.804 3.56999C127.637 3.87666 127.43 4.13666 127.184 4.34999C126.937 4.56333 126.667 4.77999 126.374 4.99999L125.564 5.57999C125.317 5.74666 125.11 5.93666 124.944 6.14999C124.777 6.35666 124.694 6.56333 124.694 6.76999V7.38999H127.884C127.95 7.38999 128.007 7.41999 128.054 7.47999C128.1 7.53999 128.124 7.60999 128.124 7.68999C128.124 7.76999 128.1 7.84333 128.054 7.90999C128.007 7.96999 127.95 7.99999 127.884 7.99999H124.324C124.25 7.99999 124.18 7.97666 124.114 7.92999C124.047 7.87666 124.014 7.81333 124.014 7.73999Z"
    fill="#E3E0D8" />
  <path
    d="M128.55 2.28999C128.55 2.17666 128.6 2.07666 128.7 1.98999L129.52 0.829993C129.593 0.729993 129.677 0.679993 129.77 0.679993C129.843 0.679993 129.91 0.703326 129.97 0.749993C130.03 0.79666 130.06 0.85666 130.06 0.929993V7.73999C130.06 7.81999 130.027 7.88333 129.96 7.92999C129.893 7.97666 129.817 7.99999 129.73 7.99999C129.637 7.99999 129.557 7.97666 129.49 7.92999C129.43 7.88333 129.4 7.81999 129.4 7.73999V1.80999L129 2.45999C128.947 2.53999 128.883 2.57999 128.81 2.57999C128.737 2.57999 128.673 2.55333 128.62 2.49999C128.573 2.43999 128.55 2.36999 128.55 2.28999Z"
    fill="#E3E0D8" />
  <path d="M13.938 53.738V56H0.72998V37.8H13.574V40.062H3.32998V45.652H12.456V47.862H3.32998V53.738H13.938Z"
    fill="white" />
  <path d="M22.1479 37.8H24.7479V53.738H34.602V56H22.1479V37.8Z" fill="#E3E0D8" />
  <path d="M54.7934 53.738V56H41.5854V37.8H54.4295V40.062H44.1855V45.652H53.3115V47.862H44.1855V53.738H54.7934Z"
    fill="white" />
  <path d="M78.5575 37.8L70.5755 56H68.0015L59.9935 37.8H62.8015L69.3535 52.75L75.9575 37.8H78.5575Z" fill="white" />
  <path d="M98.0864 53.738V56H84.8784V37.8H97.7224V40.062H87.4784V45.652H96.6044V47.862H87.4784V53.738H98.0864Z"
    fill="white" />
  <path d="M121.948 37.8V56H119.816L108.896 42.428V56H106.296V37.8H108.428L119.348 51.372V37.8H121.948Z" fill="white" />
  <path
    d="M142.378 37.8H150.048C151.972 37.8 153.68 38.1813 155.17 38.944C156.661 39.7067 157.814 40.7813 158.628 42.168C159.46 43.5373 159.876 45.1147 159.876 46.9C159.876 48.6853 159.46 50.2713 158.628 51.658C157.814 53.0273 156.661 54.0933 155.17 54.856C153.68 55.6187 151.972 56 150.048 56H142.378V37.8ZM149.892 53.738C151.366 53.738 152.657 53.452 153.766 52.88C154.893 52.308 155.76 51.5107 156.366 50.488C156.973 49.448 157.276 48.252 157.276 46.9C157.276 45.548 156.973 44.3607 156.366 43.338C155.76 42.298 154.893 41.492 153.766 40.92C152.657 40.348 151.366 40.062 149.892 40.062H144.978V53.738H149.892Z"
    fill="white" />
  <path
    d="M176.075 56.208C174.238 56.208 172.582 55.8093 171.109 55.012C169.636 54.1973 168.474 53.0793 167.625 51.658C166.793 50.2367 166.377 48.6507 166.377 46.9C166.377 45.1493 166.793 43.5633 167.625 42.142C168.474 40.7207 169.636 39.6113 171.109 38.814C172.582 37.9993 174.238 37.592 176.075 37.592C177.895 37.592 179.542 37.9993 181.015 38.814C182.488 39.6113 183.641 40.7207 184.473 42.142C185.305 43.546 185.721 45.132 185.721 46.9C185.721 48.668 185.305 50.2627 184.473 51.684C183.641 53.088 182.488 54.1973 181.015 55.012C179.542 55.8093 177.895 56.208 176.075 56.208ZM176.075 53.894C177.41 53.894 178.606 53.5907 179.663 52.984C180.738 52.3773 181.578 51.5453 182.185 50.488C182.809 49.4133 183.121 48.2173 183.121 46.9C183.121 45.5827 182.809 44.3953 182.185 43.338C181.578 42.2633 180.738 41.4227 179.663 40.816C178.606 40.2093 177.41 39.906 176.075 39.906C174.74 39.906 173.527 40.2093 172.435 40.816C171.36 41.4227 170.511 42.2633 169.887 43.338C169.28 44.3953 168.977 45.5827 168.977 46.9C168.977 48.2173 169.28 49.4133 169.887 50.488C170.511 51.5453 171.36 52.3773 172.435 52.984C173.527 53.5907 174.74 53.894 176.075 53.894Z"
    fill="white" />
  <path
    d="M206.305 46.796H208.801V53.894C207.899 54.6393 206.851 55.2113 205.655 55.61C204.459 56.0087 203.211 56.208 201.911 56.208C200.073 56.208 198.418 55.8093 196.945 55.012C195.471 54.1973 194.31 53.088 193.461 51.684C192.629 50.2627 192.213 48.668 192.213 46.9C192.213 45.132 192.629 43.5373 193.461 42.116C194.31 40.6947 195.471 39.5853 196.945 38.788C198.435 37.9907 200.108 37.592 201.963 37.592C203.419 37.592 204.736 37.8347 205.915 38.32C207.111 38.788 208.125 39.4813 208.957 40.4L207.345 42.012C205.889 40.608 204.129 39.906 202.067 39.906C200.68 39.906 199.432 40.2093 198.323 40.816C197.231 41.4053 196.373 42.2373 195.749 43.312C195.125 44.3693 194.813 45.5653 194.813 46.9C194.813 48.2173 195.125 49.4133 195.749 50.488C196.373 51.5453 197.231 52.3773 198.323 52.984C199.432 53.5907 200.671 53.894 202.041 53.894C203.67 53.894 205.091 53.504 206.305 52.724V46.796Z"
    fill="white" />
  <path
    d="M223.083 56.208C221.713 56.208 220.387 56 219.105 55.584C217.839 55.1507 216.843 54.596 216.115 53.92L217.077 51.892C217.77 52.516 218.654 53.0273 219.729 53.426C220.821 53.8073 221.939 53.998 223.083 53.998C224.591 53.998 225.717 53.7467 226.463 53.244C227.208 52.724 227.581 52.0393 227.581 51.19C227.581 50.566 227.373 50.0633 226.957 49.682C226.558 49.2833 226.055 48.98 225.449 48.772C224.859 48.564 224.019 48.33 222.927 48.07C221.557 47.7407 220.448 47.4113 219.599 47.082C218.767 46.7527 218.047 46.25 217.441 45.574C216.851 44.8807 216.557 43.9533 216.557 42.792C216.557 41.8213 216.808 40.946 217.311 40.166C217.831 39.386 218.611 38.762 219.651 38.294C220.691 37.826 221.982 37.592 223.525 37.592C224.599 37.592 225.657 37.7307 226.697 38.008C227.737 38.2853 228.629 38.684 229.375 39.204L228.517 41.284C227.754 40.7987 226.939 40.4347 226.073 40.192C225.206 39.932 224.357 39.802 223.525 39.802C222.051 39.802 220.942 40.0707 220.197 40.608C219.469 41.1453 219.105 41.8387 219.105 42.688C219.105 43.312 219.313 43.8233 219.729 44.222C220.145 44.6033 220.656 44.9067 221.263 45.132C221.887 45.34 222.727 45.5653 223.785 45.808C225.154 46.1373 226.255 46.4667 227.087 46.796C227.919 47.1253 228.629 47.628 229.219 48.304C229.825 48.98 230.129 49.89 230.129 51.034C230.129 51.9873 229.869 52.8627 229.349 53.66C228.829 54.44 228.04 55.064 226.983 55.532C225.925 55.9827 224.625 56.208 223.083 56.208Z"
    fill="white" />
  <path
    d="M35.216 85.6V74.704C35.216 74.576 35.264 74.48 35.36 74.416C35.456 74.3413 35.568 74.304 35.696 74.304H38.32C38.8106 74.304 39.2373 74.3413 39.6 74.416C39.9626 74.4907 40.2986 74.624 40.608 74.816C40.928 75.008 41.168 75.2907 41.328 75.664C41.4986 76.0267 41.584 76.48 41.584 77.024C41.584 77.6853 41.4613 78.2453 41.216 78.704C40.9706 79.1627 40.64 79.4827 40.224 79.664C40.7573 79.8773 41.1626 80.1973 41.44 80.624C41.728 81.0507 41.872 81.648 41.872 82.416V82.704C41.872 83.856 41.584 84.6933 41.008 85.216C40.432 85.7387 39.664 86 38.704 86H35.696C35.5466 86 35.4293 85.9627 35.344 85.888C35.2586 85.8027 35.216 85.7067 35.216 85.6ZM36.256 85.024H38.576C40.0693 85.024 40.816 84.2347 40.816 82.656V82.384C40.816 80.8693 40.0693 80.112 38.576 80.112H36.256V85.024ZM36.256 79.2H38.352C39.1093 79.2 39.6586 79.0453 40 78.736C40.352 78.416 40.528 77.8827 40.528 77.136C40.528 76.4427 40.336 75.9627 39.952 75.696C39.568 75.4187 39.0133 75.28 38.288 75.28H36.256V79.2Z"
    fill="#E3E0D8" />
  <path
    d="M43.5894 84C43.5894 83.1787 43.904 82.608 44.5334 82.288C45.1734 81.968 46.1014 81.808 47.3174 81.808H48.1334V81.424C48.1334 80.8373 47.9787 80.3307 47.6694 79.904C47.36 79.4667 46.8854 79.248 46.2454 79.248C45.8187 79.248 45.4294 79.328 45.0774 79.488C44.736 79.6373 44.5547 79.712 44.5334 79.712C44.4054 79.712 44.304 79.6533 44.2294 79.536C44.1547 79.4187 44.1174 79.2907 44.1174 79.152C44.1174 78.9493 44.3467 78.7627 44.8054 78.592C45.264 78.4213 45.7547 78.336 46.2774 78.336C47.28 78.336 48.0107 78.6293 48.4694 79.216C48.9387 79.792 49.1734 80.528 49.1734 81.424V85.584C49.1734 85.7013 49.1254 85.8027 49.0294 85.888C48.9334 85.9627 48.8107 86 48.6614 86C48.5227 86 48.4054 85.9627 48.3094 85.888C48.224 85.8027 48.1814 85.7013 48.1814 85.584V84.88C47.4667 85.7013 46.6614 86.112 45.7654 86.112C45.1254 86.112 44.6027 85.936 44.1974 85.584C43.792 85.2213 43.5894 84.6933 43.5894 84ZM44.6294 83.904C44.6294 84.352 44.7574 84.688 45.0134 84.912C45.2694 85.1253 45.6054 85.232 46.0214 85.232C46.5227 85.232 46.9974 85.0453 47.4454 84.672C47.904 84.2987 48.1334 83.9253 48.1334 83.552V82.528H47.4614C47.0347 82.528 46.672 82.544 46.3734 82.576C46.0854 82.608 45.7974 82.6667 45.5094 82.752C45.2214 82.8373 45.0027 82.976 44.8534 83.168C44.704 83.36 44.6294 83.6053 44.6294 83.904Z"
    fill="#E3E0D8" />
  <path
    d="M51.633 85.584V78.816C51.633 78.7093 51.681 78.6187 51.777 78.544C51.873 78.4693 51.9956 78.432 52.145 78.432C52.2836 78.432 52.401 78.4693 52.497 78.544C52.593 78.6187 52.641 78.7093 52.641 78.816V79.6C52.833 79.248 53.1156 78.9493 53.489 78.704C53.8623 78.4587 54.2943 78.336 54.785 78.336H55.345C55.4516 78.336 55.5476 78.384 55.633 78.48C55.7183 78.576 55.761 78.688 55.761 78.816C55.761 78.944 55.7183 79.056 55.633 79.152C55.5476 79.248 55.4516 79.296 55.345 79.296H54.785C54.2303 79.296 53.7396 79.5147 53.313 79.952C52.8863 80.3787 52.673 80.9387 52.673 81.632V85.584C52.673 85.6907 52.6196 85.7867 52.513 85.872C52.417 85.9573 52.2943 86 52.145 86C52.0063 86 51.8836 85.9573 51.777 85.872C51.681 85.7867 51.633 85.6907 51.633 85.584Z"
    fill="#E3E0D8" />
  <path
    d="M57.4299 85.584V74.176C57.4299 74.0693 57.4779 73.9787 57.5739 73.904C57.6699 73.8293 57.7925 73.792 57.9419 73.792C58.0912 73.792 58.2139 73.8293 58.3099 73.904C58.4165 73.9787 58.4699 74.0693 58.4699 74.176V79.552C58.6619 79.2 58.9392 78.912 59.3019 78.688C59.6752 78.4533 60.1072 78.336 60.5979 78.336C61.3872 78.336 62.0592 78.6293 62.6139 79.216C63.1792 79.8027 63.4619 80.5067 63.4619 81.328V83.072C63.4619 83.872 63.1739 84.5813 62.5979 85.2C62.0325 85.808 61.3765 86.112 60.6299 86.112C60.1499 86.112 59.7072 85.9947 59.3019 85.76C58.8965 85.5147 58.6085 85.2213 58.4379 84.88V85.584C58.4379 85.6907 58.3899 85.7867 58.2939 85.872C58.1979 85.9573 58.0805 86 57.9419 86C57.8032 86 57.6805 85.9573 57.5739 85.872C57.4779 85.7867 57.4299 85.6907 57.4299 85.584ZM58.4699 83.568C58.4699 83.856 58.6672 84.192 59.0619 84.576C59.4672 84.96 59.9259 85.152 60.4379 85.152C60.9712 85.152 61.4352 84.9387 61.8299 84.512C62.2245 84.0853 62.4219 83.6053 62.4219 83.072V81.328C62.4219 80.8053 62.2245 80.336 61.8299 79.92C61.4352 79.504 60.9659 79.296 60.4219 79.296C59.9099 79.296 59.4565 79.4827 59.0619 79.856C58.6672 80.2293 58.4699 80.72 58.4699 81.328V83.568Z"
    fill="#E3E0D8" />
  <path
    d="M65.3919 83.072V81.28C65.3919 80.48 65.6905 79.792 66.2879 79.216C66.8852 78.6293 67.6052 78.336 68.4479 78.336C69.2585 78.336 69.9572 78.6133 70.5439 79.168C71.1412 79.7227 71.4399 80.416 71.4399 81.248C71.4399 81.5467 71.4025 81.7867 71.3279 81.968C71.2639 82.1493 71.1519 82.2773 70.9919 82.352C70.8425 82.4267 70.7039 82.4747 70.5759 82.496C70.4479 82.5173 70.2719 82.528 70.0479 82.528H66.4319V83.12C66.4319 83.7493 66.6559 84.256 67.1039 84.64C67.5625 85.0133 68.1492 85.2 68.8639 85.2C69.2265 85.2 69.5412 85.1467 69.8079 85.04C70.0852 84.9333 70.2932 84.8267 70.4319 84.72C70.5812 84.6133 70.6985 84.56 70.7839 84.56C70.9012 84.56 71.0025 84.6187 71.0879 84.736C71.1839 84.8427 71.2319 84.9493 71.2319 85.056C71.2319 85.28 71.0025 85.5147 70.5439 85.76C70.0852 85.9947 69.5145 86.112 68.8319 86.112C67.8185 86.112 66.9919 85.8347 66.3519 85.28C65.7119 84.7147 65.3919 83.9787 65.3919 83.072ZM66.4319 81.76H69.6319C69.9519 81.76 70.1652 81.728 70.2719 81.664C70.3785 81.5893 70.4319 81.44 70.4319 81.216C70.4319 80.6827 70.2399 80.2133 69.8559 79.808C69.4825 79.4027 69.0079 79.2 68.4319 79.2C67.8772 79.2 67.4025 79.392 67.0079 79.776C66.6239 80.16 66.4319 80.6187 66.4319 81.152V81.76Z"
    fill="#E3E0D8" />
  <path
    d="M73.508 85.584V78.816C73.508 78.7093 73.556 78.6187 73.652 78.544C73.748 78.4693 73.8706 78.432 74.02 78.432C74.1586 78.432 74.276 78.4693 74.372 78.544C74.468 78.6187 74.516 78.7093 74.516 78.816V79.6C74.708 79.248 74.9906 78.9493 75.364 78.704C75.7373 78.4587 76.1693 78.336 76.66 78.336H77.22C77.3266 78.336 77.4226 78.384 77.508 78.48C77.5933 78.576 77.636 78.688 77.636 78.816C77.636 78.944 77.5933 79.056 77.508 79.152C77.4226 79.248 77.3266 79.296 77.22 79.296H76.66C76.1053 79.296 75.6146 79.5147 75.188 79.952C74.7613 80.3787 74.548 80.9387 74.548 81.632V85.584C74.548 85.6907 74.4946 85.7867 74.388 85.872C74.292 85.9573 74.1693 86 74.02 86C73.8813 86 73.7586 85.9573 73.652 85.872C73.556 85.7867 73.508 85.6907 73.508 85.584Z"
    fill="#E3E0D8" />
  <path
    d="M78.7624 84.96C78.7624 84.8533 78.7997 84.7467 78.8744 84.64C78.949 84.5333 79.0344 84.48 79.1304 84.48C79.205 84.48 79.3224 84.544 79.4824 84.672C79.6424 84.7893 79.8717 84.912 80.1704 85.04C80.469 85.168 80.8264 85.232 81.2424 85.232C81.8077 85.232 82.2237 85.1253 82.4904 84.912C82.757 84.6987 82.8904 84.4267 82.8904 84.096C82.8904 83.712 82.7517 83.408 82.4744 83.184C82.2077 82.9493 81.8824 82.7787 81.4984 82.672C81.1144 82.5653 80.725 82.448 80.3304 82.32C79.9464 82.192 79.6157 81.984 79.3384 81.696C79.0717 81.3973 78.9384 81.0027 78.9384 80.512C78.9384 79.9253 79.1464 79.4187 79.5624 78.992C79.989 78.5547 80.6237 78.336 81.4664 78.336C81.989 78.336 82.4744 78.4213 82.9224 78.592C83.381 78.752 83.6104 78.928 83.6104 79.12C83.6104 79.2267 83.5677 79.344 83.4824 79.472C83.397 79.6 83.2957 79.664 83.1784 79.664C83.1464 79.664 82.949 79.5893 82.5864 79.44C82.2237 79.2907 81.8557 79.216 81.4824 79.216C80.949 79.216 80.549 79.344 80.2824 79.6C80.0157 79.856 79.8824 80.144 79.8824 80.464C79.8824 80.7947 80.0157 81.056 80.2824 81.248C80.5597 81.44 80.8904 81.5893 81.2744 81.696C81.669 81.792 82.0584 81.9093 82.4424 82.048C82.837 82.176 83.1677 82.4107 83.4344 82.752C83.7117 83.0827 83.8504 83.5147 83.8504 84.048C83.8504 84.688 83.621 85.1947 83.1624 85.568C82.7144 85.9307 82.085 86.112 81.2744 86.112C80.5704 86.112 79.973 85.9893 79.4824 85.744C79.0024 85.488 78.7624 85.2267 78.7624 84.96Z"
    fill="#E3E0D8" />
  <path
    d="M85.8986 85.584V74.176C85.8986 74.0693 85.9466 73.9787 86.0426 73.904C86.1386 73.8293 86.2613 73.792 86.4106 73.792C86.5599 73.792 86.6826 73.8293 86.7786 73.904C86.8853 73.9787 86.9386 74.0693 86.9386 74.176V79.552C87.1199 79.2107 87.3919 78.9227 87.7546 78.688C88.1279 78.4533 88.5599 78.336 89.0506 78.336C89.8186 78.336 90.4799 78.6293 91.0346 79.216C91.5999 79.8027 91.8826 80.5067 91.8826 81.328V85.584C91.8826 85.712 91.8293 85.8133 91.7226 85.888C91.6266 85.9627 91.5039 86 91.3546 86C91.2266 86 91.1093 85.9627 91.0026 85.888C90.8959 85.8133 90.8426 85.712 90.8426 85.584V81.328C90.8426 80.8053 90.6453 80.336 90.2506 79.92C89.8559 79.504 89.3919 79.296 88.8586 79.296C88.3573 79.296 87.9093 79.4827 87.5146 79.856C87.1306 80.2293 86.9386 80.72 86.9386 81.328V85.584C86.9386 85.6907 86.8853 85.7867 86.7786 85.872C86.6719 85.9573 86.5493 86 86.4106 86C86.2719 86 86.1493 85.9573 86.0426 85.872C85.9466 85.7867 85.8986 85.6907 85.8986 85.584Z"
    fill="#E3E0D8" />
  <path
    d="M94.0321 83.072V81.328C94.0321 80.5173 94.3308 79.8187 94.9281 79.232C95.5254 78.6347 96.2348 78.336 97.0561 78.336C97.8774 78.336 98.5921 78.6293 99.2001 79.216C99.8081 79.8027 100.112 80.5067 100.112 81.328V83.072C100.112 83.872 99.8028 84.5813 99.1841 85.2C98.5761 85.808 97.8668 86.112 97.0561 86.112C96.2561 86.112 95.5521 85.808 94.9441 85.2C94.3361 84.5813 94.0321 83.872 94.0321 83.072ZM95.0721 83.072C95.0721 83.616 95.2641 84.1013 95.6481 84.528C96.0428 84.944 96.5121 85.152 97.0561 85.152C97.6108 85.152 98.0854 84.944 98.4801 84.528C98.8748 84.1013 99.0721 83.616 99.0721 83.072V81.328C99.0721 80.8053 98.8694 80.336 98.4641 79.92C98.0694 79.504 97.6001 79.296 97.0561 79.296C96.5121 79.296 96.0428 79.504 95.6481 79.92C95.2641 80.336 95.0721 80.8053 95.0721 81.328V83.072Z"
    fill="#E3E0D8" />
  <path
    d="M102.32 89.312V78.816C102.32 78.7093 102.368 78.6187 102.464 78.544C102.56 78.4693 102.683 78.432 102.832 78.432C102.971 78.432 103.088 78.4693 103.184 78.544C103.28 78.6187 103.328 78.7093 103.328 78.816V79.552C103.52 79.2107 103.803 78.9227 104.176 78.688C104.55 78.4533 104.982 78.336 105.472 78.336C106.262 78.336 106.939 78.6293 107.504 79.216C108.07 79.8027 108.352 80.5067 108.352 81.328V83.072C108.352 83.872 108.064 84.5813 107.488 85.2C106.923 85.808 106.267 86.112 105.52 86.112C105.051 86.112 104.619 85.9947 104.224 85.76C103.83 85.5147 103.542 85.2213 103.36 84.88V89.312C103.36 89.408 103.307 89.4987 103.2 89.584C103.104 89.6693 102.982 89.712 102.832 89.712C102.694 89.712 102.571 89.6693 102.464 89.584C102.368 89.4987 102.32 89.408 102.32 89.312ZM103.36 83.568C103.36 83.856 103.558 84.192 103.952 84.576C104.358 84.96 104.816 85.152 105.328 85.152C105.851 85.152 106.31 84.9387 106.704 84.512C107.11 84.0853 107.312 83.6053 107.312 83.072V81.328C107.312 80.8053 107.11 80.336 106.704 79.92C106.31 79.504 105.84 79.296 105.296 79.296C104.784 79.296 104.331 79.4827 103.936 79.856C103.552 80.2293 103.36 80.72 103.36 81.328V83.568Z"
    fill="#E3E0D8" />
  <path
    d="M113.81 82.752C113.81 81.9947 114.018 81.344 114.434 80.8C114.85 80.256 115.367 79.8453 115.986 79.568C115.57 79.088 115.25 78.6347 115.026 78.208C114.802 77.7813 114.69 77.296 114.69 76.752C114.69 75.9093 114.967 75.248 115.522 74.768C116.076 74.2773 116.764 74.032 117.586 74.032C118.364 74.032 118.994 74.2133 119.474 74.576C119.954 74.9387 120.194 75.2693 120.194 75.568C120.194 75.7067 120.146 75.824 120.05 75.92C119.954 76.0053 119.836 76.048 119.698 76.048C119.612 76.048 119.511 75.9893 119.394 75.872C119.287 75.7547 119.175 75.6267 119.058 75.488C118.951 75.3387 118.77 75.2053 118.514 75.088C118.258 74.9707 117.964 74.912 117.634 74.912C117.058 74.912 116.604 75.088 116.274 75.44C115.943 75.7813 115.778 76.24 115.778 76.816C115.778 77.168 115.858 77.52 116.018 77.872C116.178 78.224 116.343 78.512 116.514 78.736C116.695 78.9493 116.946 79.232 117.266 79.584L120.514 83.136C120.823 82.432 121.004 81.4613 121.058 80.224C121.068 80.064 121.106 79.952 121.17 79.888C121.234 79.824 121.356 79.792 121.538 79.792C121.836 79.792 121.986 79.9787 121.986 80.352C121.986 81.6427 121.719 82.8107 121.186 83.856L122.658 85.44C122.722 85.5147 122.754 85.5893 122.754 85.664C122.754 85.7813 122.7 85.888 122.594 85.984C122.498 86.0693 122.391 86.112 122.274 86.112C122.167 86.112 122.066 86.064 121.97 85.968L120.674 84.576C119.895 85.632 118.828 86.16 117.474 86.16C116.354 86.16 115.463 85.8293 114.802 85.168C114.14 84.5067 113.81 83.7013 113.81 82.752ZM114.882 82.656C114.882 83.3707 115.127 83.9733 115.618 84.464C116.108 84.9547 116.775 85.2 117.618 85.2C118.684 85.2 119.484 84.768 120.018 83.904L116.578 80.24C116.343 80.3787 116.151 80.5067 116.002 80.624C115.852 80.7307 115.676 80.8853 115.474 81.088C115.282 81.28 115.132 81.5093 115.026 81.776C114.93 82.0427 114.882 82.336 114.882 82.656Z"
    fill="#E3E0D8" />
  <path
    d="M128.45 85.584V74.816C128.45 74.4747 128.626 74.304 128.978 74.304C129.288 74.304 129.57 74.5493 129.826 75.04L132.578 80.352L135.33 75.04C135.586 74.5493 135.869 74.304 136.178 74.304C136.53 74.304 136.706 74.4747 136.706 74.816V85.584C136.706 85.712 136.653 85.8133 136.546 85.888C136.45 85.9627 136.328 86 136.178 86C136.04 86 135.917 85.9627 135.81 85.888C135.704 85.8133 135.65 85.712 135.65 85.584V76.592L132.994 81.616C132.877 81.84 132.733 81.952 132.562 81.952C132.402 81.952 132.264 81.84 132.146 81.616L129.506 76.544V85.584C129.506 85.712 129.453 85.8133 129.346 85.888C129.24 85.9627 129.117 86 128.978 86C128.829 86 128.701 85.9627 128.594 85.888C128.498 85.8133 128.45 85.712 128.45 85.584Z"
    fill="#E3E0D8" />
  <path
    d="M139.064 83.072V81.28C139.064 80.48 139.362 79.792 139.96 79.216C140.557 78.6293 141.277 78.336 142.12 78.336C142.93 78.336 143.629 78.6133 144.216 79.168C144.813 79.7227 145.112 80.416 145.112 81.248C145.112 81.5467 145.074 81.7867 145 81.968C144.936 82.1493 144.824 82.2773 144.664 82.352C144.514 82.4267 144.376 82.4747 144.248 82.496C144.12 82.5173 143.944 82.528 143.72 82.528H140.104V83.12C140.104 83.7493 140.328 84.256 140.776 84.64C141.234 85.0133 141.821 85.2 142.536 85.2C142.898 85.2 143.213 85.1467 143.48 85.04C143.757 84.9333 143.965 84.8267 144.104 84.72C144.253 84.6133 144.37 84.56 144.456 84.56C144.573 84.56 144.674 84.6187 144.76 84.736C144.856 84.8427 144.904 84.9493 144.904 85.056C144.904 85.28 144.674 85.5147 144.216 85.76C143.757 85.9947 143.186 86.112 142.504 86.112C141.49 86.112 140.664 85.8347 140.024 85.28C139.384 84.7147 139.064 83.9787 139.064 83.072ZM140.104 81.76H143.304C143.624 81.76 143.837 81.728 143.944 81.664C144.05 81.5893 144.104 81.44 144.104 81.216C144.104 80.6827 143.912 80.2133 143.528 79.808C143.154 79.4027 142.68 79.2 142.104 79.2C141.549 79.2 141.074 79.392 140.68 79.776C140.296 80.16 140.104 80.6187 140.104 81.152V81.76Z"
    fill="#E3E0D8" />
  <path
    d="M147.18 85.584V78.816C147.18 78.6987 147.228 78.608 147.324 78.544C147.42 78.4693 147.543 78.432 147.692 78.432C147.82 78.432 147.932 78.4693 148.028 78.544C148.124 78.6187 148.172 78.7093 148.172 78.816V79.552C148.353 79.2107 148.631 78.9227 149.004 78.688C149.377 78.4533 149.815 78.336 150.316 78.336C151.084 78.336 151.751 78.6293 152.316 79.216C152.881 79.8027 153.164 80.5067 153.164 81.328V85.584C153.164 85.712 153.111 85.8133 153.004 85.888C152.897 85.9627 152.775 86 152.636 86C152.508 86 152.391 85.9627 152.284 85.888C152.177 85.8133 152.124 85.712 152.124 85.584V81.328C152.124 80.8053 151.927 80.336 151.532 79.92C151.137 79.504 150.668 79.296 150.124 79.296C149.623 79.296 149.18 79.4827 148.796 79.856C148.412 80.2293 148.22 80.72 148.22 81.328V85.584C148.22 85.6907 148.167 85.7867 148.06 85.872C147.953 85.9573 147.831 86 147.692 86C147.543 86 147.42 85.9573 147.324 85.872C147.228 85.7867 147.18 85.6907 147.18 85.584Z"
    fill="#E3E0D8" />
  <path
    d="M154.92 74.88C154.92 74.6773 154.989 74.5067 155.128 74.368C155.277 74.2187 155.453 74.144 155.656 74.144C155.858 74.144 156.029 74.2187 156.168 74.368C156.317 74.5067 156.392 74.6773 156.392 74.88C156.392 75.1147 156.178 75.7173 155.752 76.688C155.688 76.816 155.592 76.88 155.464 76.88C155.357 76.88 155.261 76.848 155.176 76.784C155.101 76.72 155.064 76.64 155.064 76.544C155.064 76.48 155.074 76.432 155.096 76.4L155.416 75.568C155.266 75.5147 155.144 75.424 155.048 75.296C154.962 75.168 154.92 75.0293 154.92 74.88Z"
    fill="#E3E0D8" />
  <path
    d="M157.653 84.96C157.653 84.8533 157.69 84.7467 157.765 84.64C157.84 84.5333 157.925 84.48 158.021 84.48C158.096 84.48 158.213 84.544 158.373 84.672C158.533 84.7893 158.762 84.912 159.061 85.04C159.36 85.168 159.717 85.232 160.133 85.232C160.698 85.232 161.114 85.1253 161.381 84.912C161.648 84.6987 161.781 84.4267 161.781 84.096C161.781 83.712 161.642 83.408 161.365 83.184C161.098 82.9493 160.773 82.7787 160.389 82.672C160.005 82.5653 159.616 82.448 159.221 82.32C158.837 82.192 158.506 81.984 158.229 81.696C157.962 81.3973 157.829 81.0027 157.829 80.512C157.829 79.9253 158.037 79.4187 158.453 78.992C158.88 78.5547 159.514 78.336 160.357 78.336C160.88 78.336 161.365 78.4213 161.813 78.592C162.272 78.752 162.501 78.928 162.501 79.12C162.501 79.2267 162.458 79.344 162.373 79.472C162.288 79.6 162.186 79.664 162.069 79.664C162.037 79.664 161.84 79.5893 161.477 79.44C161.114 79.2907 160.746 79.216 160.373 79.216C159.84 79.216 159.44 79.344 159.173 79.6C158.906 79.856 158.773 80.144 158.773 80.464C158.773 80.7947 158.906 81.056 159.173 81.248C159.45 81.44 159.781 81.5893 160.165 81.696C160.56 81.792 160.949 81.9093 161.333 82.048C161.728 82.176 162.058 82.4107 162.325 82.752C162.602 83.0827 162.741 83.5147 162.741 84.048C162.741 84.688 162.512 85.1947 162.053 85.568C161.605 85.9307 160.976 86.112 160.165 86.112C159.461 86.112 158.864 85.9893 158.373 85.744C157.893 85.488 157.653 85.2267 157.653 84.96Z"
    fill="#E3E0D8" />
  <path
    d="M168.22 83.072V81.36C168.22 80.464 168.482 79.7387 169.004 79.184C169.527 78.6187 170.295 78.336 171.308 78.336C171.948 78.336 172.482 78.4533 172.908 78.688C173.346 78.912 173.564 79.1413 173.564 79.376C173.564 79.4933 173.516 79.6107 173.42 79.728C173.324 79.8347 173.218 79.888 173.1 79.888C173.036 79.888 172.935 79.84 172.796 79.744C172.668 79.648 172.482 79.552 172.236 79.456C171.991 79.3493 171.698 79.296 171.356 79.296C170.674 79.296 170.151 79.4773 169.788 79.84C169.436 80.2027 169.26 80.7093 169.26 81.36V83.072C169.26 83.7333 169.436 84.2453 169.788 84.608C170.151 84.9707 170.679 85.152 171.372 85.152C171.735 85.152 172.039 85.104 172.284 85.008C172.54 84.9013 172.732 84.8 172.86 84.704C172.999 84.5973 173.106 84.544 173.18 84.544C173.319 84.544 173.431 84.5973 173.516 84.704C173.612 84.8107 173.66 84.928 173.66 85.056C173.66 85.3013 173.436 85.5413 172.988 85.776C172.54 86 171.986 86.112 171.324 86.112C170.3 86.112 169.527 85.8347 169.004 85.28C168.482 84.7253 168.22 83.9893 168.22 83.072Z"
    fill="#E3E0D8" />
  <path
    d="M175.698 85.584V74.176C175.698 74.0693 175.746 73.9787 175.842 73.904C175.938 73.8293 176.061 73.792 176.21 73.792C176.36 73.792 176.482 73.8293 176.578 73.904C176.685 73.9787 176.738 74.0693 176.738 74.176V85.584C176.738 85.6907 176.685 85.7867 176.578 85.872C176.482 85.9573 176.36 86 176.21 86C176.072 86 175.949 85.9573 175.842 85.872C175.746 85.7867 175.698 85.6907 175.698 85.584Z"
    fill="#E3E0D8" />
  <path
    d="M179.303 83.104V78.832C179.303 78.736 179.351 78.6453 179.447 78.56C179.554 78.4747 179.682 78.432 179.831 78.432C179.959 78.432 180.076 78.4747 180.183 78.56C180.29 78.6453 180.343 78.736 180.343 78.832V83.104C180.343 83.6373 180.54 84.112 180.935 84.528C181.33 84.944 181.799 85.152 182.343 85.152C182.887 85.152 183.356 84.944 183.751 84.528C184.146 84.112 184.343 83.6373 184.343 83.104V78.816C184.343 78.7093 184.396 78.6187 184.503 78.544C184.61 78.4693 184.732 78.432 184.871 78.432C185.01 78.432 185.127 78.4693 185.223 78.544C185.33 78.6187 185.383 78.7093 185.383 78.816V83.104C185.383 83.904 185.079 84.608 184.471 85.216C183.874 85.8133 183.164 86.112 182.343 86.112C181.511 86.112 180.796 85.8133 180.199 85.216C179.602 84.608 179.303 83.904 179.303 83.104Z"
    fill="#E3E0D8" />
  <path
    d="M187.82 85.584V74.176C187.82 74.0693 187.868 73.9787 187.964 73.904C188.06 73.8293 188.183 73.792 188.332 73.792C188.482 73.792 188.604 73.8293 188.7 73.904C188.807 73.9787 188.86 74.0693 188.86 74.176V79.552C189.052 79.2 189.33 78.912 189.692 78.688C190.066 78.4533 190.498 78.336 190.988 78.336C191.778 78.336 192.45 78.6293 193.004 79.216C193.57 79.8027 193.852 80.5067 193.852 81.328V83.072C193.852 83.872 193.564 84.5813 192.988 85.2C192.423 85.808 191.767 86.112 191.02 86.112C190.54 86.112 190.098 85.9947 189.692 85.76C189.287 85.5147 188.999 85.2213 188.828 84.88V85.584C188.828 85.6907 188.78 85.7867 188.684 85.872C188.588 85.9573 188.471 86 188.332 86C188.194 86 188.071 85.9573 187.964 85.872C187.868 85.7867 187.82 85.6907 187.82 85.584ZM188.86 83.568C188.86 83.856 189.058 84.192 189.452 84.576C189.858 84.96 190.316 85.152 190.828 85.152C191.362 85.152 191.826 84.9387 192.22 84.512C192.615 84.0853 192.812 83.6053 192.812 83.072V81.328C192.812 80.8053 192.615 80.336 192.22 79.92C191.826 79.504 191.356 79.296 190.812 79.296C190.3 79.296 189.847 79.4827 189.452 79.856C189.058 80.2293 188.86 80.72 188.86 81.328V83.568Z"
    fill="#E3E0D8" />
</svg>