<svg width="32" height="32" viewBox="0 0 32 32" fill="none" xmlns="http://www.w3.org/2000/svg">
<path d="M29.1875 5.03806H2.8125C1.26169 5.03806 0 6.29974 0 7.85056V24.1494C0 25.7002 1.26169 26.9619 2.8125 26.9619H29.1875C30.7383 26.9619 32 25.7002 32 24.1494V7.85056C32 6.29974 30.7383 5.03806 29.1875 5.03806ZM28.8204 6.91306L28.4451 7.22562L17.1159 16.6594C16.4693 17.1978 15.5306 17.1978 14.8841 16.6594L3.55494 7.22562L3.17956 6.91306H28.8204ZM1.875 8.26668L11.1058 15.9531L1.875 22.0964V8.26668ZM29.1875 25.0869H2.8125C2.3595 25.0869 1.98063 24.7639 1.89381 24.3362L12.6091 17.2049L13.6844 18.1003C14.3552 18.6589 15.1777 18.9382 16.0001 18.9382C16.8224 18.9382 17.6448 18.6589 18.3158 18.1003L19.391 17.2049L30.1063 24.3362C30.0194 24.764 29.6405 25.0869 29.1875 25.0869ZM30.125 22.0964L20.8943 15.9532L30.125 8.26668V22.0964Z" fill="black"/>
</svg>
