<svg xmlns:dc="http://purl.org/dc/elements/1.1/" xmlns:cc="http://creativecommons.org/ns#"
  xmlns:rdf="http://www.w3.org/1999/02/22-rdf-syntax-ns#" xmlns:svg="http://www.w3.org/2000/svg"
  xmlns="http://www.w3.org/2000/svg" xmlns:sodipodi="http://sodipodi.sourceforge.net/DTD/sodipodi-0.dtd"
  xmlns:inkscape="http://www.inkscape.org/namespaces/inkscape" version="1.1" id="svg2" xml:space="preserve"
  width="1959.7067" height="1677.4268" viewBox="0 0 1959.7067 1677.4268" sodipodi:docname="eleven_dogs.ai">
  <g id="g10" inkscape:groupmode="layer" inkscape:label="eleven_dogs"
    transform="matrix(1.3333333,0,0,-1.3333333,0,1677.4267)">
    <g id="g12">
      <g id="g14" clip-path="url(#clipPath18)">
        <g id="g20" transform="translate(1275.583,893.4151)">
          <path
            d="M 0,0 22.838,-24.213 0.493,49.488 C 0.115,50.736 0.089,52.064 0.417,53.326 L 37.331,195.379 24.766,264.453 7.923,198.483 c -0.087,-0.341 -0.2,-0.676 -0.337,-1.001 L -41.601,80.875 V 39.221 L -0.321,0.32 C -0.262,0.265 -0.203,0.208 -0.146,0.15 L -0.143,0.147 C -0.139,0.143 -0.134,0.139 -0.13,0.134 -0.128,0.132 -0.126,0.13 -0.124,0.128 -0.121,0.125 -0.117,0.122 -0.115,0.119 -0.111,0.116 -0.108,0.113 -0.105,0.109 -0.104,0.108 -0.102,0.105 -0.1,0.104 -0.096,0.1 -0.092,0.095 -0.088,0.091 -0.087,0.09 -0.086,0.089 -0.085,0.089 -0.08,0.083 -0.075,0.079 -0.07,0.074 V 0.073 Z m 14.636,51.691 28.246,-93.166 70.607,29.111 -61.766,69.453 c -1.222,1.374 -1.862,3.169 -1.785,5.006 l 6.152,147.086 -11.937,27.887 7.403,-40.69 c 0.183,-1.013 0.145,-2.054 -0.115,-3.051 z M -131.536,36.412 -95.05,-65.095 -16.072,-4.312 -51.761,29.321 Z m 181.788,-90.179 35.586,-40.347 26.688,66.023 z m -136.047,-22.09 31.448,-18.523 42.099,17.357 v 57.77 z m 87.721,-2.24 38.358,-27.112 33.404,3.443 -40.529,45.952 c -0.021,0.023 -0.043,0.047 -0.064,0.071 L 1.926,-22.697 Z m -37.731,-48.031 -6.916,-13.799 33.445,3.744 8.843,14.15 -14.458,6.362 z m -56.116,37.43 -4.671,-96.275 34.6,39.23 v 39.417 z m 136.228,-30.344 -32.474,-165.128 32.638,26.912 34.387,141.777 z m -28.566,-71.806 -49.229,-127.58 28.131,20.297 z m -123.75,-82.845 56.466,-52.156 81.309,210.718 -35.832,25.326 -41.752,-17.215 v -11.447 l 0.4,0.798 c 0.686,1.369 1.797,2.479 3.166,3.163 l 26,13 c 1.887,0.943 4.093,0.997 6.023,0.148 l 25,-11 c 1.883,-0.828 3.313,-2.434 3.918,-4.4 0.606,-1.966 0.328,-4.098 -0.762,-5.842 l -15,-24 c -1.148,-1.836 -3.071,-3.046 -5.222,-3.287 l -47.104,-5.273 -46.56,-52.79 z m 67.207,-67.489 17.297,-82.01 15.17,105.435 z m 40.775,-18.354 -10.656,-74.058 16.765,16.128 z m -134.798,-98.942 27.19,-0.675 37.944,40.226 -26.881,53.198 h -38.193 z m 37.746,-31.626 38.711,-4.56 27,40.075 -23.787,112.783 -65.237,60.256 c -1.729,1.597 -2.552,3.949 -2.196,6.277 l 10.878,71.16 6.133,126.406 -28.946,80.528 -0.232,-354.377 h 42.542 c 2.674,0 5.119,-1.505 6.325,-3.891 l 31.09,-61.527 c 1.346,-2.665 0.878,-5.887 -1.17,-8.059 l -43.526,-46.146 c -1.381,-1.464 -3.323,-2.28 -5.331,-2.222 l -30.009,0.746 -0.005,-7.18 z m -37.77,-4.417 -0.012,-19.63 20.06,14.179 z m -7.109,-40.41 c -1.114,0 -2.232,0.263 -3.26,0.795 -2.351,1.219 -3.827,3.647 -3.826,6.296 l 0.027,41.952 c -0.038,0.424 -0.039,0.856 0.001,1.29 l 0.013,18.446 c -0.033,0.308 -0.047,0.621 -0.038,0.939 0.005,0.199 0.018,0.397 0.039,0.591 l 0.068,104.729 c -0.072,0.406 -0.11,0.824 -0.11,1.25 0,0.43 0.038,0.851 0.112,1.26 l 0.261,399.567 c -0.758,2.243 -0.347,4.719 1.104,6.598 1.477,1.915 3.823,2.947 6.238,2.73 l 85.555,-7.605 v 38.244 c -0.012,0.514 0.033,1.032 0.136,1.548 0.105,0.527 0.268,1.032 0.483,1.509 l 49.476,117.295 24.712,96.791 c 0.064,0.267 0.142,0.529 0.236,0.785 0.389,1.075 1.02,2.007 1.814,2.749 0.603,0.565 1.311,1.031 2.104,1.363 1.012,0.425 2.127,0.617 3.269,0.533 0.005,0 0.011,-0.002 0.015,-10e-4 0.565,-0.044 1.122,-0.155 1.655,-0.329 1.081,-0.351 2.025,-0.943 2.788,-1.701 0.549,-0.542 1.016,-1.181 1.371,-1.903 0.068,-0.137 0.13,-0.275 0.189,-0.416 L 69.752,213.28 c 0.417,-0.973 0.61,-2.027 0.565,-3.085 L 64.219,64.366 130.604,-10.279 c 0.464,-0.499 0.863,-1.073 1.176,-1.712 0.117,-0.24 0.222,-0.487 0.312,-0.738 0.566,-1.585 0.533,-3.251 0.009,-4.739 -0.001,-0.002 -0.002,-0.004 -0.002,-0.006 l -0.003,-0.007 c -0.002,-0.005 -0.003,-0.009 -0.005,-0.013 0,-0.002 -0.001,-0.003 -0.001,-0.005 -0.032,-0.089 -0.067,-0.179 -0.103,-0.268 L 94.874,-109.578 57.688,-262.894 c -0.362,-1.489 -1.196,-2.821 -2.378,-3.797 L 8.504,-305.286 20.541,-419.427 c 0.23,-2.175 -0.559,-4.334 -2.135,-5.85 l -32.919,-31.668 c -0.69,-1.242 -1.738,-2.238 -2.985,-2.872 l -0.861,-0.829 -30.669,-45.521 c -1.483,-2.201 -4.073,-3.387 -6.706,-3.079 l -40.827,4.81 -41.306,-29.195 c -1.219,-0.862 -2.652,-1.3 -4.091,-1.3"
            style="fill:#1a1a1a;fill-opacity:1;fill-rule:nonzero;stroke:none" id="path22" />
        </g>
        <g id="g24" transform="translate(1061.5518,571.17)">
          <path
            d="m 0,0 h 5.783 c 5.397,0 9.638,4.241 9.638,9.638 v 15.806 c 0,18.89 -15.035,33.925 -33.926,33.925 h -20.817 c -18.891,0 -33.925,-15.035 -33.925,-33.925 v -57.827 c 0,-12.722 7.71,-24.673 19.275,-30.456 l 39.323,-18.504 c 2.698,-1.542 4.626,-4.241 4.626,-7.711 v -87.511 c 0,-4.626 -3.855,-8.481 -8.482,-8.481 h -20.817 c -4.626,0 -8.482,3.855 -8.482,8.481 v 15.806 c 0,5.397 -4.626,9.638 -10.023,9.638 h -5.782 c -5.398,0 -9.638,-4.241 -9.638,-9.638 v -15.806 c 0,-18.89 15.034,-33.925 33.925,-33.925 h 20.817 c 18.891,0 33.926,15.035 33.926,33.925 v 87.511 c 0,13.108 -7.711,25.059 -19.276,30.842 l -39.323,18.504 c -2.698,1.157 -4.626,4.241 -4.626,7.325 v 57.827 c 0,4.626 3.856,8.481 8.482,8.481 h 20.817 c 4.627,0 8.482,-3.855 8.482,-8.481 V 9.638 C -10.023,4.241 -5.397,0 0,0 m -138.012,59.369 h -20.817 c -18.891,0 -33.926,-15.035 -33.926,-33.925 v -202.009 c 0,-18.89 15.035,-33.925 33.926,-33.925 h 20.817 c 18.89,0 33.925,15.035 33.925,33.925 v 63.609 c 0,5.398 -4.626,9.639 -10.023,9.639 h -21.974 c -5.397,0 -9.638,-4.241 -9.638,-9.639 v -5.782 c 0,-5.397 4.626,-9.638 10.023,-9.638 h 6.169 v -48.189 c 0,-4.626 -3.856,-8.481 -8.482,-8.481 h -20.817 c -4.627,0 -8.482,3.855 -8.482,8.481 V 25.444 c 0,4.626 3.855,8.481 8.482,8.481 h 20.817 c 4.626,0 8.482,-3.855 8.482,-8.481 V 9.638 c 0,-5.397 4.626,-9.638 10.023,-9.638 h 5.782 c 5.398,0 9.638,4.241 9.638,9.638 v 15.806 c 0,18.89 -15.035,33.925 -33.925,33.925 M -249.039,25.444 c 0,4.626 -3.855,8.481 -8.481,8.481 h -20.817 c -4.626,0 -8.482,-3.855 -8.482,-8.481 v -202.009 c 0,-4.626 3.856,-8.481 8.482,-8.481 h 20.817 c 4.626,0 8.481,3.855 8.481,8.481 z m 25.444,0 v -202.009 c 0,-18.89 -15.034,-33.925 -33.925,-33.925 h -20.817 c -18.891,0 -33.926,15.035 -33.926,33.925 V 25.444 c 0,18.89 15.035,33.925 33.926,33.925 h 20.817 c 18.891,0 33.925,-15.035 33.925,-33.925 m -144.951,0 c 0,4.626 -3.855,8.481 -8.481,8.481 h -29.3 v -218.971 h 29.3 c 4.626,0 8.481,3.855 8.481,8.481 z m 25.443,0 v -202.009 c 0,-18.89 -15.034,-33.925 -33.924,-33.925 h -45.105 c -5.398,0 -9.639,4.24 -9.639,9.637 V 49.731 c 0,5.397 4.241,9.638 9.639,9.638 h 45.105 c 18.89,0 33.924,-15.035 33.924,-33.925 m 281.04,88.349 v 116.425 c 12.722,-30.841 30.071,-59.369 51.66,-85.198 v -31.227 c 0,-5.397 4.626,-9.638 10.023,-9.638 h 5.782 c 5.398,0 9.638,4.241 9.638,9.638 v 250.584 c 0,5.397 -4.626,9.638 -10.023,9.638 h -5.783 c -5.397,0 -9.637,-4.241 -9.637,-9.638 V 187.426 c -33.54,49.731 -51.66,109.1 -51.66,169.626 v 7.325 c 0,5.397 -4.625,9.638 -10.023,9.638 h -5.782 c -5.398,0 -9.638,-4.241 -9.638,-9.638 V 113.793 c 0,-5.397 4.626,-9.638 10.024,-9.638 h 5.782 c 5.397,0 9.637,4.241 9.637,9.638 m -98.69,-9.638 h 32.383 c 5.397,0 9.638,4.626 9.638,10.024 v 5.782 c 0,5.397 -4.241,9.638 -9.638,9.638 h -32.383 c -4.627,0 -8.481,3.855 -8.481,8.482 v 100.618 l 34.31,3.856 c 5.012,0.385 8.482,4.626 8.482,9.637 v 5.783 c 0,6.168 -5.398,11.18 -11.566,10.409 l -31.226,-3.855 v 84.042 h 40.864 c 5.397,0 9.638,4.626 9.638,10.023 v 5.783 c 0,5.397 -4.241,9.638 -9.638,9.638 h -56.671 c -5.396,0 -9.638,-4.241 -9.638,-9.638 V 138.081 c 0,-18.891 15.035,-33.926 33.926,-33.926 m -123.749,6.94 c 1.157,-4.627 4.627,-6.94 8.867,-6.94 h 11.565 c 4.241,0 7.711,2.313 8.867,6.94 l 25.444,107.943 c 2.698,12.337 4.24,25.059 4.24,37.78 v 107.559 c 0,5.397 -4.24,9.638 -9.637,9.638 h -6.168 c -5.398,0 -9.638,-4.627 -9.638,-10.024 V 256.818 c 0,-10.794 -1.157,-21.588 -3.47,-31.997 l -15.421,-65.152 -15.42,65.152 c -2.313,10.409 -3.47,21.203 -3.47,31.997 v 107.559 c 0,5.397 -4.626,9.638 -10.023,9.638 h -5.782 c -5.398,0 -9.639,-4.627 -9.639,-10.024 V 256.818 c 0,-12.721 1.542,-25.443 4.241,-37.78 z m -102.932,-6.94 h 32.384 c 5.397,0 9.637,4.626 9.637,10.024 v 5.782 c 0,5.397 -4.24,9.638 -9.637,9.638 h -32.384 c -4.626,0 -8.481,3.855 -8.481,8.482 v 100.618 l 34.311,3.856 c 5.011,0.385 8.481,4.626 8.481,9.637 v 5.783 c 0,6.168 -5.397,11.18 -11.565,10.409 l -31.227,-3.855 v 84.042 h 40.865 c 5.397,0 9.637,4.626 9.637,10.023 v 5.783 c 0,5.397 -4.24,9.638 -9.637,9.638 h -56.671 c -5.397,0 -9.638,-4.241 -9.638,-9.638 V 138.081 c 0,-18.891 15.035,-33.926 33.925,-33.926 m -75.174,25.444 h -40.479 v 234.778 c 0,5.397 -4.626,9.638 -10.023,9.638 h -5.783 c -5.397,0 -9.638,-4.241 -9.638,-9.638 V 113.793 c 0,-5.397 4.241,-9.638 9.638,-9.638 h 56.671 c 5.397,0 9.638,4.626 9.638,10.024 v 5.782 c 0,5.397 -4.626,9.638 -10.024,9.638 m -97.149,234.778 v -5.783 c 0,-5.397 -4.241,-10.023 -9.638,-10.023 h -40.864 v -84.042 l 31.226,3.855 c 6.169,0.771 11.566,-4.241 11.566,-10.409 v -5.783 c 0,-5.011 -3.47,-9.252 -8.481,-9.637 l -34.311,-3.856 V 138.081 c 0,-4.627 3.855,-8.482 8.481,-8.482 h 32.383 c 5.397,0 9.638,-4.241 9.638,-9.638 v -5.782 c 0,-5.398 -4.241,-10.024 -9.638,-10.024 h -32.383 c -18.89,0 -33.925,15.035 -33.925,33.926 v 226.296 c 0,5.397 4.241,9.638 9.638,9.638 h 56.67 c 5.397,0 9.638,-4.241 9.638,-9.638"
            style="fill:#e6e6e6;fill-opacity:1;fill-rule:nonzero;stroke:none" id="path26" />
        </g>
        <g id="g28" transform="translate(1149.1504,610.8751)">
          <path
            d="m 0,0 c -1.094,1.01 -1.614,2.497 -1.39,3.969 l 11.488,75.142 6.499,133.96 -36.493,101.524 -0.257,-393.551 h 47.821 c 1.691,0 3.237,-0.951 3.999,-2.46 l 32.764,-64.84 c 0.851,-1.684 0.555,-3.722 -0.741,-5.095 l -45.869,-48.63 c -0.871,-0.926 -2.082,-1.446 -3.37,-1.405 l -34.683,0.862 -0.009,-12.912 42.212,-11.48 42.824,-5.044 30.177,44.791 -25.525,121.023 z m 78.522,-63.751 22.109,-104.822 19.39,134.763 z M 150.971,126.403 83.147,-49.364 121.902,-21.4 Z m -41.578,-297.007 24.986,24.037 -9.106,86.34 z m 106.868,360.333 32.601,80.65 -76.07,-31.364 z m -83.489,-202.302 41.606,34.306 37.47,154.486 -42.816,-4.413 z m 43.392,511.569 -38.998,-150.073 30.965,-102.135 81.341,33.536 -67.888,76.335 c -0.772,0.868 -1.177,2.004 -1.128,3.165 l 6.511,155.68 -23.275,54.376 12.544,-68.955 c 0.117,-0.64 0.092,-1.299 -0.072,-1.929 M 19.657,91.214 62.503,139.793 v 44.376 l -37.271,21.953 z m -39.924,-344.302 31.032,21.933 -31.012,8.433 z m 142.95,545.538 32.774,-34.748 -27.233,89.828 c -0.24,0.789 -0.257,1.629 -0.049,2.427 l 39.067,150.337 -15.808,86.902 -21.134,-82.778 c -0.055,-0.216 -0.126,-0.428 -0.213,-0.633 L 78.018,380.344 v -45.79 l 44.461,-41.9 c 0.07,-0.066 0.138,-0.134 0.204,-0.204 m -3.849,-89.19 -47.369,-19.53 v -26.69 l 6.079,12.13 c 0.435,0.865 1.136,1.567 2.003,2 l 27.399,13.7 c 1.193,0.596 2.588,0.63 3.808,0.093 L 137.1,173.371 c 1.19,-0.523 2.095,-1.539 2.478,-2.782 0.383,-1.243 0.207,-2.591 -0.482,-3.694 l -15.808,-25.292 c -0.725,-1.161 -1.941,-1.926 -3.302,-2.078 L 69.201,133.839 18.793,76.686 7.83,4.968 l 63.9,-59.024 88.108,228.335 z m -3.909,8.083 v 68.948 l -85.821,-66.05 38.233,-22.519 z m -5.854,-35.43 -24.183,-12.092 -10.2,-20.349 42.149,4.718 11.914,19.063 z M 55.015,-147.49 24.912,-87.917 h -45.07 l -0.069,-103.643 32.902,-0.817 z m 153.564,332.382 -46.593,52.827 c -0.015,0.016 -0.03,0.032 -0.044,0.048 l -38.055,40.345 v -67.448 l 42.601,-30.111 z m -185.326,36.154 -41.417,115.227 89.758,-7.979 40.913,-38.556 z"
            style="fill:#e6e6e6;fill-opacity:1;fill-rule:nonzero;stroke:none" id="path30" />
        </g>
      </g>
    </g>
  </g>
</svg>