<?xml version="1.0" encoding="utf-8"?>
<!-- Generator: Adobe Illustrator 24.3.0, SVG Export Plug-In . SVG Version: 6.00 Build 0)  -->
<svg version="1.1" id="Layer_1" xmlns="http://www.w3.org/2000/svg" xmlns:xlink="http://www.w3.org/1999/xlink" x="0px" y="0px"
	 viewBox="0 0 1469.78 1258.07" style="enable-background:new 0 0 1469.78 1258.07;" xml:space="preserve">
<style type="text/css">
	.st0{display:none;}
	.st1{fill:#E6E6E6;}
</style>
<path class="st0" d="M1133.62,899.59c-1.11,0-2.23-0.26-3.26-0.79c-2.35-1.22-3.83-3.65-3.83-6.3l0.03-41.95
	c-0.04-0.42-0.04-0.86,0-1.29l0.01-18.45c-0.03-0.31-0.05-0.62-0.04-0.94c0-0.2,0.02-0.4,0.04-0.59l0.07-104.73
	c-0.07-0.41-0.11-0.82-0.11-1.25c0-0.43,0.04-0.85,0.11-1.26l0.26-399.57c-0.76-2.24-0.35-4.72,1.1-6.6
	c1.48-1.92,3.82-2.95,6.24-2.73l85.55,7.6V282.5c-0.01-0.51,0.03-1.03,0.14-1.55c0.1-0.53,0.27-1.03,0.48-1.51l49.48-117.29
	l24.71-96.79c0.06-0.27,0.14-0.53,0.24-0.79c0.39-1.07,1.02-2.01,1.81-2.75c0.6-0.57,1.31-1.03,2.1-1.36
	c1.01-0.42,2.13-0.62,3.27-0.53c0,0,0.01,0,0.01,0c0.57,0.04,1.12,0.15,1.66,0.33c1.08,0.35,2.03,0.94,2.79,1.7
	c0.55,0.54,1.02,1.18,1.37,1.9c0.07,0.14,0.13,0.27,0.19,0.42l37.28,87.09c0.42,0.97,0.61,2.03,0.57,3.08l-6.1,145.83l66.38,74.65
	c0.46,0.5,0.86,1.07,1.18,1.71c0.12,0.24,0.22,0.49,0.31,0.74c0.57,1.58,0.53,3.25,0.01,4.74c0,0,0,0,0,0.01c0,0,0,0,0,0.01
	c0,0,0,0.01,0,0.01c0,0,0,0,0,0c-0.03,0.09-0.07,0.18-0.1,0.27l-37.11,91.81l-37.19,153.32c-0.36,1.49-1.2,2.82-2.38,3.8
	l-46.81,38.6l12.04,114.14c0.23,2.17-0.56,4.33-2.13,5.85l-32.92,31.67c-0.69,1.24-1.74,2.24-2.99,2.87l-0.86,0.83l-30.67,45.52
	c-1.48,2.2-4.07,3.39-6.71,3.08l-40.83-4.81l-41.31,29.2C1136.5,899.15,1135.06,899.59,1133.62,899.59z M1140.73,859.18l-0.01,19.63
	l20.06-14.18L1140.73,859.18z M1178.5,854.76l38.71,4.56l27-40.07l-23.79-112.78l-65.24-60.26c-1.73-1.6-2.55-3.95-2.2-6.28
	l10.88-71.16l6.13-126.41l-28.95-80.53l-0.23,354.38h42.54c2.67,0,5.12,1.5,6.33,3.89l31.09,61.53c1.35,2.66,0.88,5.89-1.17,8.06
	l-43.53,46.15c-1.38,1.46-3.32,2.28-5.33,2.22l-30.01-0.75l0,7.18L1178.5,854.76z M1140.76,823.13l27.19,0.68l37.94-40.23
	l-26.88-53.2h-38.19L1140.76,823.13z M1275.56,724.19l-10.66,74.06l16.76-16.13L1275.56,724.19z M1234.78,705.84l17.3,82.01
	l15.17-105.44L1234.78,705.84z M1167.57,638.35l56.47,52.16l81.31-210.72l-35.83-25.33l-41.75,17.21v11.45l0.4-0.8
	c0.69-1.37,1.8-2.48,3.17-3.16l26-13c1.89-0.94,4.09-1,6.02-0.15l25,11c1.88,0.83,3.31,2.43,3.92,4.4s0.33,4.1-0.76,5.84l-15,24
	c-1.15,1.84-3.07,3.05-5.22,3.29l-47.1,5.27l-46.56,52.79L1167.57,638.35z M1291.32,555.5l-49.23,127.58l28.13-20.3L1291.32,555.5z
	 M1319.89,483.7l-32.47,165.13l32.64-26.91l34.39-141.78L1319.89,483.7z M1183.66,453.35l-4.67,96.27l34.6-39.23v-39.42
	L1183.66,453.35z M1239.78,490.78l-6.92,13.8l33.44-3.74l8.84-14.15l-14.46-6.36L1239.78,490.78z M1277.51,442.75l38.36,27.11
	l33.4-3.44l-40.53-45.95c-0.02-0.02-0.04-0.05-0.06-0.07l-31.17-33.05V442.75z M1189.79,440.51l31.45,18.52l42.1-17.36v-57.77
	L1189.79,440.51z M1325.83,418.42l35.59,40.35l26.69-66.02L1325.83,418.42z M1144.05,328.24l36.49,101.51l78.98-60.78l-35.69-33.63
	L1144.05,328.24z M1290.22,312.96l28.25,93.17l70.61-29.11l-61.77-69.45c-1.22-1.37-1.86-3.17-1.78-5.01l6.15-147.09l-11.94-27.89
	l7.4,40.69c0.18,1.01,0.15,2.05-0.11,3.05L1290.22,312.96z M1275.58,364.66l22.84,24.21l-22.34-73.7c-0.38-1.25-0.4-2.58-0.08-3.84
	l36.91-142.05l-12.57-69.07l-16.84,65.97c-0.09,0.34-0.2,0.68-0.34,1l-49.19,116.61v41.65l41.28,38.9c0.06,0.06,0.12,0.11,0.18,0.17
	c0,0,0,0,0,0c0,0,0.01,0.01,0.01,0.01c0,0,0,0,0.01,0.01c0,0,0.01,0.01,0.01,0.01c0,0,0.01,0.01,0.01,0.01c0,0,0,0,0.01,0.01
	c0,0,0.01,0.01,0.01,0.01c0,0,0,0,0,0c0,0.01,0.01,0.01,0.01,0.02c0,0,0,0,0,0C1275.54,364.61,1275.56,364.63,1275.58,364.66z"/>
<path class="st1" d="M325.79,471.52v5.78c0,5.4-4.24,10.02-9.64,10.02h-40.86v84.04l31.23-3.85c6.17-0.77,11.57,4.24,11.57,10.41
	v5.78c0,5.01-3.47,9.25-8.48,9.64l-34.31,3.86v100.62c0,4.63,3.86,8.48,8.48,8.48h32.38c5.4,0,9.64,4.24,9.64,9.64v5.78
	c0,5.4-4.24,10.02-9.64,10.02h-32.38c-18.89,0-33.93-15.04-33.93-33.93v-226.3c0-5.4,4.24-9.64,9.64-9.64h56.67
	C321.55,461.89,325.79,466.13,325.79,471.52z M422.94,706.3h-40.48V471.52c0-5.4-4.63-9.64-10.02-9.64h-5.78
	c-5.4,0-9.64,4.24-9.64,9.64v250.58c0,5.4,4.24,9.64,9.64,9.64h56.67c5.4,0,9.64-4.63,9.64-10.02v-5.78
	C432.97,710.54,428.34,706.3,422.94,706.3z M498.12,731.75h32.38c5.4,0,9.64-4.63,9.64-10.02v-5.78c0-5.4-4.24-9.64-9.64-9.64
	h-32.38c-4.63,0-8.48-3.85-8.48-8.48V597.2l34.31-3.86c5.01-0.39,8.48-4.63,8.48-9.64v-5.78c0-6.17-5.4-11.18-11.57-10.41
	l-31.23,3.85v-84.04h40.86c5.4,0,9.64-4.63,9.64-10.02v-5.78c0-5.4-4.24-9.64-9.64-9.64h-56.67c-5.4,0-9.64,4.24-9.64,9.64v226.3
	C464.19,716.71,479.23,731.75,498.12,731.75z M601.05,724.81c1.16,4.63,4.63,6.94,8.87,6.94h11.57c4.24,0,7.71-2.31,8.87-6.94
	l25.44-107.94c2.7-12.34,4.24-25.06,4.24-37.78V471.52c0-5.4-4.24-9.64-9.64-9.64h-6.17c-5.4,0-9.64,4.63-9.64,10.02v107.17
	c0,10.79-1.16,21.59-3.47,32l-15.42,65.15l-15.42-65.15c-2.31-10.41-3.47-21.2-3.47-32V471.52c0-5.4-4.63-9.64-10.02-9.64H581
	c-5.4,0-9.64,4.63-9.64,10.02v107.17c0,12.72,1.54,25.44,4.24,37.78L601.05,724.81z M724.8,731.75h32.38c5.4,0,9.64-4.63,9.64-10.02
	v-5.78c0-5.4-4.24-9.64-9.64-9.64H724.8c-4.63,0-8.48-3.85-8.48-8.48V597.2l34.31-3.86c5.01-0.39,8.48-4.63,8.48-9.64v-5.78
	c0-6.17-5.4-11.18-11.57-10.41l-31.23,3.85v-84.04h40.86c5.4,0,9.64-4.63,9.64-10.02v-5.78c0-5.4-4.24-9.64-9.64-9.64h-56.67
	c-5.4,0-9.64,4.24-9.64,9.64v226.3C690.87,716.71,705.91,731.75,724.8,731.75z M823.49,722.11V605.68
	c12.72,30.84,30.07,59.37,51.66,85.2v31.23c0,5.4,4.63,9.64,10.02,9.64h5.78c5.4,0,9.64-4.24,9.64-9.64V471.52
	c0-5.4-4.63-9.64-10.02-9.64h-5.78c-5.4,0-9.64,4.24-9.64,9.64v176.95c-33.54-49.73-51.66-109.1-51.66-169.63v-7.32
	c0-5.4-4.63-9.64-10.02-9.64h-5.78c-5.4,0-9.64,4.24-9.64,9.64v250.58c0,5.4,4.63,9.64,10.02,9.64h5.78
	C819.25,731.75,823.49,727.5,823.49,722.11z M542.45,810.46v202.01c0,18.89-15.03,33.93-33.92,33.93h-45.1
	c-5.4,0-9.64-4.24-9.64-9.64V786.17c0-5.4,4.24-9.64,9.64-9.64h45.1C527.41,776.53,542.45,791.57,542.45,810.46z M517.01,810.46
	c0-4.63-3.85-8.48-8.48-8.48h-29.3v218.97h29.3c4.63,0,8.48-3.85,8.48-8.48V810.46z M661.96,810.46v202.01
	c0,18.89-15.03,33.93-33.92,33.93h-20.82c-18.89,0-33.93-15.04-33.93-33.93V810.46c0-18.89,15.04-33.93,33.93-33.93h20.82
	C646.92,776.53,661.96,791.57,661.96,810.46z M636.51,810.46c0-4.63-3.85-8.48-8.48-8.48h-20.82c-4.63,0-8.48,3.86-8.48,8.48v202.01
	c0,4.63,3.86,8.48,8.48,8.48h20.82c4.63,0,8.48-3.85,8.48-8.48V810.46z M747.54,776.53h-20.82c-18.89,0-33.93,15.04-33.93,33.93
	v202.01c0,18.89,15.04,33.93,33.93,33.93h20.82c18.89,0,33.92-15.04,33.92-33.93v-63.61c0-5.4-4.63-9.64-10.02-9.64h-21.97
	c-5.4,0-9.64,4.24-9.64,9.64v5.78c0,5.4,4.63,9.64,10.02,9.64h6.17v48.19c0,4.63-3.86,8.48-8.48,8.48h-20.82
	c-4.63,0-8.48-3.85-8.48-8.48V810.46c0-4.63,3.85-8.48,8.48-8.48h20.82c4.63,0,8.48,3.86,8.48,8.48v15.81
	c0,5.4,4.63,9.64,10.02,9.64h5.78c5.4,0,9.64-4.24,9.64-9.64v-15.81C781.46,791.57,766.43,776.53,747.54,776.53z M885.55,835.9h5.78
	c5.4,0,9.64-4.24,9.64-9.64v-15.81c0-18.89-15.04-33.93-33.93-33.93h-20.82c-18.89,0-33.92,15.04-33.92,33.93v57.83
	c0,12.72,7.71,24.67,19.28,30.46l39.32,18.5c2.7,1.54,4.63,4.24,4.63,7.71v87.51c0,4.63-3.85,8.48-8.48,8.48h-20.82
	c-4.63,0-8.48-3.85-8.48-8.48v-15.81c0-5.4-4.63-9.64-10.02-9.64h-5.78c-5.4,0-9.64,4.24-9.64,9.64v15.81
	c0,18.89,15.03,33.93,33.92,33.93h20.82c18.89,0,33.93-15.04,33.93-33.93v-87.51c0-13.11-7.71-25.06-19.28-30.84l-39.32-18.5
	c-2.7-1.16-4.63-4.24-4.63-7.32v-57.83c0-4.63,3.86-8.48,8.48-8.48h20.82c4.63,0,8.48,3.86,8.48,8.48v15.81
	C875.53,831.66,880.15,835.9,885.55,835.9z"/>
<path class="st1" d="M996.4,575.15l-41.42-115.23l89.76,7.98l40.91,38.56L996.4,575.15z M1181.73,611.3l-46.59-52.83
	c-0.02-0.02-0.03-0.03-0.04-0.05l-38.06-40.35v67.45l42.6,30.11L1181.73,611.3z M1028.16,943.69l-30.1-59.57h-45.07l-0.07,103.64
	l32.9,0.82L1028.16,943.69z M1082.22,620.28l-24.18,12.09l-10.2,20.35l42.15-4.72l11.91-19.06L1082.22,620.28z M1088.08,584.85
	v-68.95l-85.82,66.05l38.23,22.52L1088.08,584.85z M1091.98,592.94l-47.37,19.53v26.69l6.08-12.13c0.43-0.87,1.14-1.57,2-2
	l27.4-13.7c1.19-0.6,2.59-0.63,3.81-0.09l26.35,11.59c1.19,0.52,2.1,1.54,2.48,2.78c0.38,1.24,0.21,2.59-0.48,3.69l-15.81,25.29
	c-0.73,1.16-1.94,1.93-3.3,2.08l-50.79,5.69l-50.41,57.15l-10.96,71.72l63.9,59.02l88.11-228.34L1091.98,592.94z M1095.83,503.75
	l32.77,34.75l-27.23-89.83c-0.24-0.79-0.26-1.63-0.05-2.43l39.07-150.34l-15.81-86.9l-21.13,82.78c-0.06,0.22-0.13,0.43-0.21,0.63
	l-52.07,123.44v45.79l44.46,41.9C1095.7,503.61,1095.77,503.68,1095.83,503.75z M952.88,1049.28l31.03-21.93l-31.01-8.43
	L952.88,1049.28z M992.81,704.98l42.85-48.58v-44.38l-37.27-21.95L992.81,704.98z M1149.31,297.2l-39,150.07l30.97,102.14
	l81.34-33.54l-67.89-76.34c-0.77-0.87-1.18-2-1.13-3.17l6.51-155.68l-23.27-54.38l12.54,68.96
	C1149.5,295.91,1149.48,296.57,1149.31,297.2z M1105.92,808.77l41.61-34.31L1185,619.98l-42.81,4.41L1105.92,808.77z
	 M1189.41,606.47l32.6-80.65l-76.07,31.36L1189.41,606.47z M1082.54,966.8l24.99-24.04l-9.11-86.34L1082.54,966.8z M1124.12,669.79
	l-67.82,175.77l38.76-27.96L1124.12,669.79z M1051.67,859.95l22.11,104.82l19.39-134.76L1051.67,859.95z M973.15,796.2
	c-1.09-1.01-1.61-2.5-1.39-3.97l11.49-75.14l6.5-133.96L953.26,481.6L953,875.15h47.82c1.69,0,3.24,0.95,4,2.46l32.76,64.84
	c0.85,1.68,0.56,3.72-0.74,5.1l-45.87,48.63c-0.87,0.93-2.08,1.45-3.37,1.4l-34.68-0.86l-0.01,12.91l42.21,11.48l42.82,5.04
	l30.18-44.79l-25.52-121.02L973.15,796.2z"/>
</svg>
